# xmcd
#
# Track frame offsets: 
#        150
#        23074
#        41567
#        61837
#        81640
#        101559
#        120212
#        138978
#        163682
#        184832
#        205012
#        221736
#        239050
#
# Disc length: 3490 seconds
#
# Revision: 0
# Processed by: cddbd v1.5.2PL0 Copyright (c) Steve Scherf et al.
# Submitted via: ExactAudioCopyFreeDBPlugin 1.0
#
DISCID=b50da00d
DTITLE=群星 - DTS 在乎你每分每秒
DYEAR=2011
DGENRE=Acid
TTITLE0=传奇
TTITLE1=惦记这一些
TTITLE2=我曾用心爱着你
TTITLE3=朋友别哭
TTITLE4=那一刻
TTITLE5=记事本
TTITLE6=飘摇
TTITLE7=梦中的你
TTITLE8=你的爱给了谁
TTITLE9=缠绵
TTITLE10=偏偏喜欢你
TTITLE11=天使的翅膀
TTITLE12=烟花易冷
EXTD=
EXTT0=
EXTT1=
EXTT2=
EXTT3=
EXTT4=
EXTT5=
EXTT6=
EXTT7=
EXTT8=
EXTT9=
EXTT10=
EXTT11=
EXTT12=
PLAYORDER=
